<?xml version="1.0" encoding="UTF-8"?>
<svg id="Ebene_1" data-name="Ebene 1" xmlns="http://www.w3.org/2000/svg" viewBox="0 0 595.27557 595.27559">
  <defs>
    <style>
      .cls-1 {
        fill: #080706;
      }

      .cls-2 {
        fill: #fcc10a;
      }
    </style>
  </defs>
  <rect class="cls-1" width="595.27557" height="595.27559"/>
  <g>
    <path class="cls-2" d="M231.26126,262.25813l-94.33525,168.18434c-28.88921-36.25372-46.20424-82.45834-46.20424-132.80472,0-25.33451,4.38156-49.63364,12.41875-72.13089l116.95568,18.09998c8.14288,1.26404,13.36901,8.96927,12.30002,16.72834-.3827.64544-.7786,1.26404-1.13496,1.92294Z"/>
    <path class="cls-2" d="M295.57234,222.62922l-191.69277.8471c25.4447-68.9842,85.36101-120.78283,158.36924-133.5846l43.59117,113.56176c2.99584,7.81283-.93705,16.2711-8.06361,19.21604-.73905-.01346-1.46498-.05376-2.20403-.0403Z"/>
    <path class="cls-2" d="M232.779,338.82658l95.74739,167.29678c-10.08286,1.54646-20.39006,2.33988-30.89525,2.33988-64.0207,0-121.24485-29.62426-159.20069-76.15159l72.92905-92.96061c5.13382-6.54879,14.30606-7.30183,20.36364-2.48778.35636.65898.68629,1.31788,1.05586,1.96332Z"/>
    <path class="cls-2" d="M361.41438,259.56869l-97.29147-169.99969c10.90102-1.81542,22.0925-2.75666,33.50823-2.75666,64.41669,0,121.95756,29.98728,159.9134,77.01215l-74.69754,95.20628c-5.14695,6.56225-14.30598,7.31529-20.37685,2.48778-.34315-.64544-.68621-1.30442-1.05578-1.94986Z"/>
    <path class="cls-2" d="M298.62095,375.76605l191.58725-.86056c-26.3289,68.09664-86.45642,118.85988-159.3195,130.8414l-42.5221-110.8051c-3.00905-7.82629.93697-16.28456,8.06361-19.2295.72584.02692,1.4649.05376,2.19074.05376Z"/>
    <path class="cls-2" d="M504.55381,297.63775c0,26.50449-4.80389,51.86592-13.55379,75.23719l-116.88971-18.09998c-8.1428-1.26404-13.36901-8.96927-12.30002-16.72834.38278-.63198.76547-1.26404,1.13504-1.90948l95.81336-170.80657c28.63845,36.17304,45.79512,82.18938,45.79512,132.30718Z"/>
  </g>
</svg>